<svg xmlns="http://www.w3.org/2000/svg" width="1600" height="900" viewBox="0 0 1600 900" fill="none">
  <rect width="1600" height="900" fill="#0F172A"/>
  <rect x="24" y="20" width="1552" height="62" rx="12" fill="#111827" stroke="#334155"/>
  <text x="48" y="57" fill="#E2E8F0" font-size="26" font-family="Segoe UI, Arial, sans-serif" font-weight="700">CAM System Native Workbench v8</text>
  <text x="1190" y="57" fill="#93C5FD" font-size="18" font-family="Segoe UI, Arial, sans-serif">Qt Widgets + bridge sync + OCCT/XDE boundary</text>

  <rect x="24" y="96" width="1552" height="54" rx="10" fill="#1E293B" stroke="#475569"/>
  <text x="48" y="130" fill="#F8FAFC" font-size="20" font-family="Segoe UI, Arial, sans-serif">File · Attach Snapshot · Import STEP · Import DXF · Fit · Isolate · Hide · Show All</text>

  <rect x="24" y="166" width="290" height="550" rx="12" fill="#111827" stroke="#334155"/>
  <rect x="24" y="716" width="1552" height="160" rx="12" fill="#111827" stroke="#334155"/>
  <rect x="330" y="166" width="950" height="550" rx="12" fill="#020617" stroke="#334155"/>
  <rect x="1296" y="166" width="280" height="550" rx="12" fill="#111827" stroke="#334155"/>

  <text x="46" y="202" fill="#F8FAFC" font-size="20" font-family="Segoe UI, Arial, sans-serif" font-weight="700">Programming browser</text>
  <rect x="42" y="220" width="254" height="40" rx="8" fill="#1E293B"/>
  <text x="56" y="246" fill="#93C5FD" font-size="16" font-family="Segoe UI, Arial, sans-serif">Model tree</text>
  <rect x="42" y="272" width="254" height="40" rx="8" fill="#0F172A" stroke="#334155"/>
  <text x="56" y="298" fill="#CBD5E1" font-size="16" font-family="Segoe UI, Arial, sans-serif">Features</text>
  <rect x="42" y="324" width="254" height="40" rx="8" fill="#0F172A" stroke="#334155"/>
  <text x="56" y="350" fill="#CBD5E1" font-size="16" font-family="Segoe UI, Arial, sans-serif">Operations</text>
  <rect x="42" y="376" width="254" height="40" rx="8" fill="#0F172A" stroke="#334155"/>
  <text x="56" y="402" fill="#CBD5E1" font-size="16" font-family="Segoe UI, Arial, sans-serif">Tools</text>
  <text x="56" y="460" fill="#94A3B8" font-size="15" font-family="Segoe UI, Arial, sans-serif">Stable ids, source refs, link mappings,</text>
  <text x="56" y="484" fill="#94A3B8" font-size="15" font-family="Segoe UI, Arial, sans-serif">and future topology selection routing.</text>

  <text x="352" y="202" fill="#F8FAFC" font-size="20" font-family="Segoe UI, Arial, sans-serif" font-weight="700">Model viewport</text>
  <rect x="354" y="220" width="902" height="470" rx="10" fill="#0B1220" stroke="#475569"/>
  <text x="390" y="280" fill="#E2E8F0" font-size="32" font-family="Segoe UI, Arial, sans-serif" font-weight="700">STEP / OCCT model workbench viewport</text>
  <text x="390" y="328" fill="#CBD5E1" font-size="20" font-family="Segoe UI, Arial, sans-serif">Selection sync: model tree ⇄ features ⇄ operations ⇄ viewport ⇄ inspector</text>
  <text x="390" y="366" fill="#93C5FD" font-size="18" font-family="Segoe UI, Arial, sans-serif">Commands: fit · orbit · pan · zoom · isolate · hide · show</text>
  <rect x="390" y="420" width="300" height="160" rx="12" fill="#111827" stroke="#334155"/>
  <text x="414" y="458" fill="#F8FAFC" font-size="22" font-family="Segoe UI, Arial, sans-serif" font-weight="700">Real now</text>
  <text x="414" y="494" fill="#CBD5E1" font-size="17" font-family="Segoe UI, Arial, sans-serif">Qt main window + docked CAM layout</text>
  <text x="414" y="522" fill="#CBD5E1" font-size="17" font-family="Segoe UI, Arial, sans-serif">Bridge snapshot tree/selection sync</text>
  <text x="414" y="550" fill="#CBD5E1" font-size="17" font-family="Segoe UI, Arial, sans-serif">Visibility hooks + inspector updates</text>
  <rect x="728" y="420" width="470" height="160" rx="12" fill="#111827" stroke="#334155"/>
  <text x="752" y="458" fill="#F8FAFC" font-size="22" font-family="Segoe UI, Arial, sans-serif" font-weight="700">Foundational next plug-ins</text>
  <text x="752" y="494" fill="#CBD5E1" font-size="17" font-family="Segoe UI, Arial, sans-serif">OCCT XDE STEP document loading</text>
  <text x="752" y="522" fill="#CBD5E1" font-size="17" font-family="Segoe UI, Arial, sans-serif">AIS display-object mapping</text>
  <text x="752" y="550" fill="#CBD5E1" font-size="17" font-family="Segoe UI, Arial, sans-serif">Face / edge / solid selection + path layers</text>

  <text x="1318" y="202" fill="#F8FAFC" font-size="20" font-family="Segoe UI, Arial, sans-serif" font-weight="700">Inspector</text>
  <rect x="1318" y="222" width="236" height="56" rx="8" fill="#1E293B"/>
  <text x="1336" y="257" fill="#E2E8F0" font-size="16" font-family="Segoe UI, Arial, sans-serif">Selection details</text>
  <rect x="1318" y="292" width="236" height="56" rx="8" fill="#0F172A" stroke="#334155"/>
  <text x="1336" y="327" fill="#E2E8F0" font-size="16" font-family="Segoe UI, Arial, sans-serif">Bridge snapshot</text>
  <rect x="1318" y="362" width="236" height="56" rx="8" fill="#0F172A" stroke="#334155"/>
  <text x="1336" y="397" fill="#E2E8F0" font-size="16" font-family="Segoe UI, Arial, sans-serif">STEP/XDE session</text>
  <rect x="1318" y="432" width="236" height="56" rx="8" fill="#0F172A" stroke="#334155"/>
  <text x="1336" y="467" fill="#E2E8F0" font-size="16" font-family="Segoe UI, Arial, sans-serif">Visibility + link state</text>

  <text x="46" y="752" fill="#F8FAFC" font-size="20" font-family="Segoe UI, Arial, sans-serif" font-weight="700">Review and run status</text>
  <rect x="42" y="770" width="220" height="40" rx="8" fill="#1E293B"/>
  <text x="60" y="796" fill="#93C5FD" font-size="16" font-family="Segoe UI, Arial, sans-serif">Warnings</text>
  <rect x="276" y="770" width="220" height="40" rx="8" fill="#0F172A" stroke="#334155"/>
  <text x="294" y="796" fill="#CBD5E1" font-size="16" font-family="Segoe UI, Arial, sans-serif">Checklist</text>
  <rect x="510" y="770" width="220" height="40" rx="8" fill="#0F172A" stroke="#334155"/>
  <text x="528" y="796" fill="#CBD5E1" font-size="16" font-family="Segoe UI, Arial, sans-serif">AI review</text>
  <rect x="744" y="770" width="220" height="40" rx="8" fill="#0F172A" stroke="#334155"/>
  <text x="762" y="796" fill="#CBD5E1" font-size="16" font-family="Segoe UI, Arial, sans-serif">Logs / console</text>
  <rect x="978" y="770" width="280" height="40" rx="8" fill="#0F172A" stroke="#334155"/>
  <text x="996" y="796" fill="#CBD5E1" font-size="16" font-family="Segoe UI, Arial, sans-serif">Project metadata</text>
  <text x="62" y="842" fill="#CBD5E1" font-size="18" font-family="Segoe UI, Arial, sans-serif">The desktop shell is real. Bridge sync and OCCT/XDE loading are wired; final viewport rendering and topology highlight remain next steps.</text>
</svg>
